# xmcd CD database file
#
# Track frame offsets:
#	150
#	19133
#	37641
#	57482
#	77724
#	99453
#	120371
#	136878
#	156798
#	177685
#	196203
#	210100
#	216991
#	234505
#	267913
#	299392
#
# Disc length: 4675 seconds
#
# Revision: 3
# Processed by: cddbd v1.5.2PL0 Copyright (c) Steve Scherf et al.
# Submitted via: CDex 2.23
#
DISCID=da124110
DTITLE=Shania Twain - The Woman In Me
DYEAR=1995
DGENRE=Country
TTITLE0=Home ain't where his heart is (Anymore)
TTITLE1=Any man of mine
TTITLE2=Whose bed have your boots been under
TTITLE3=(If you're not in it for love) I'm outta here!
TTITLE4=The woman in me (Needs the man in you)
TTITLE5=Is there life after love?
TTITLE6=If it don't take two
TTITLE7=You win my love
TTITLE8=Raining on our love
TTITLE9=Leaving is the only way out
TTITLE10=No one needs to know
TTITLE11=God bless the child
TTITLE12=You win my love [Mutt Lang mix]
TTITLE13=Medley: Home ain't where his heart is (Anymore), The woman in me, You've got a way [TV mix]
TTITLE14=(If you're not in it for love) I'm outta here! [remix]
TTITLE15=God Bless The Child (Video)
EXTD=YEAR: 1995
EXTT0=
EXTT1=
EXTT2=
EXTT3=
EXTT4=
EXTT5=
EXTT6=
EXTT7=
EXTT8=
EXTT9=
EXTT10=
EXTT11=
EXTT12=
EXTT13=
EXTT14=
EXTT15=
PLAYORDER=
